<?xml version="1.0" standalone="no"?><!DOCTYPE svg PUBLIC "-//W3C//DTD SVG 1.1//EN" "http://www.w3.org/Graphics/SVG/1.1/DTD/svg11.dtd"><svg t="1563332324486" class="icon" viewBox="0 0 1024 1024" version="1.1" xmlns="http://www.w3.org/2000/svg" p-id="851" width="32" height="32" xmlns:xlink="http://www.w3.org/1999/xlink"><defs><style type="text/css"></style></defs><path d="M605.090909 11.636364h-186.181818C221.090909 11.636364 58.181818 174.545455 58.181818 372.363636v279.272728c0 197.818182 162.909091 360.727273 360.727273 360.727272h186.181818c197.818182 0 360.727273-162.909091 360.727273-360.727272V372.363636C965.818182 174.545455 802.909091 11.636364 605.090909 11.636364z m-186.181818 930.909091c-27.927273 0-53.527273-4.654545-79.127273-11.636364 25.6-214.109091 72.145455-290.909091 172.218182-290.909091 100.072727 0 146.618182 79.127273 172.218182 290.909091-25.6 6.981818-53.527273 11.636364-79.127273 11.636364h-186.181818zM360.727273 418.909091c0-83.781818 67.490909-151.272727 151.272727-151.272727s151.272727 67.490909 151.272727 151.272727-67.490909 151.272727-151.272727 151.272727-151.272727-67.490909-151.272727-151.272727z m535.272727 232.727273c0 107.054545-58.181818 200.145455-144.290909 251.345454-11.636364-97.745455-34.909091-232.727273-123.345455-295.563636 62.836364-39.563636 102.4-107.054545 102.4-186.181818 0-121.018182-100.072727-221.090909-221.090909-221.090909s-221.090909 100.072727-221.090909 221.090909c0 79.127273 41.890909 148.945455 104.727273 186.181818-79.127273 58.181818-107.054545 176.872727-121.018182 297.890909C186.181818 851.781818 128 758.690909 128 651.636364V372.363636C128 211.781818 258.327273 81.454545 418.909091 81.454545h186.181818c160.581818 0 290.909091 130.327273 290.909091 290.909091v279.272728z" fill="#333333" p-id="852"></path></svg>